# xmcd
#
# Track frame offsets:
#	150
#	17227
#	33077
#	49397
#	65930
#	76002
#	92115
#	107527
#	121802
#	139872
#	153557
#	169557
#	187392
#	202395
#	215900
#
# Disc length: 3088 seconds
# Revision: 0
# Processed by: cddbd v1.5.2PL0 Copyright (c) Steve Scherf et al.
# Submitted via: dBpowerAMP V12.0
#
DISCID=e00c0e0f
DTITLE=西田佐知子 - エッセンシャル・ベスト
DYEAR=1960
DGENRE=歌謡曲
TTITLE0=コーヒー・ルンバ
TTITLE1=アカシアの雨がやむとき
TTITLE2=死ぬまで一緒に
TTITLE3=エリカの花散るとき
TTITLE4=故郷のように
TTITLE5=東京ブルース
TTITLE6=博多ブルース
TTITLE7=メリケン・ブルース
TTITLE8=柳ヶ瀬ブルース
TTITLE9=港町ブルース
TTITLE10=赤坂の夜は更けて
TTITLE11=女の意地
TTITLE12=くれないホテル
TTITLE13=ウナ・セラ・ディ東京
TTITLE14=ワン・レイニー・ナイト・イン・トーキョー
EXTD=
EXTT0=
EXTT1=
EXTT2=
EXTT3=
EXTT4=
EXTT5=
EXTT6=
EXTT7=
EXTT8=
EXTT9=
EXTT10=
EXTT11=
EXTT12=
EXTT13=
EXTT14=
PLAYORDER=
